Love for All and Sharing is the first step to solving all the problems of humanity.

Website I want to share. 
               
   http://www.scenetime.com
 
 
  Credit to EVERYONE for sharing and seeding back
 especially to SCENETIME.COM where i get all my 
 downloads.


 support www.scenetime.com to grow faster.

                             
                                                            
                                                   

.                 ..................................NFO:....................................*******************************************************************************
                 Must.Love.Death.2009.DVDRip.AC3.X264-BARC0DE
*******************************************************************************

-------------------------------------------------------------------------------
                              General Information
-------------------------------------------------------------------------------
Type.................: Movie
Name.................: Must Love Death
Movie Information....: http://www.imdb.com/title/tt1329410/
Genre................: Comedy | Horror | Romance
-------------------------------------------------------------------------------
                                    PLOT
-------------------------------------------------------------------------------
Disappointed by love, suicidal Norman arranges to meet some like-minded people. 
But when he arrives at the meeting the alleged suicides turn out to be unscrupulous 
killers looking for a willing victim. A comical and macabre fight against death begins.

-------------------------------------------------------------------------------
                                    CAST
-------------------------------------------------------------------------------
Sami Loris	... 	Norman
Manon Kahle	... 	Jennifer
Jeff Burrell	... 	Sean
Peter Farkas	... 	Gary
Philipp Rafferty	... 	Foxx C. Bigelow
Lucie Pohl	... 	Liza
Katjana Gerz	... 	Heather
Tobias Schenke	... 	Thorsten 

-------------------------------------------------------------------------------
                                    MEDiA iNFO
-------------------------------------------------------------------------------

General
Complete name                    : Must.Love.Death.2009.DVDRip.AC3.X264-BARC0DE.mkv
Format                           : Matroska
File size                        : 1.08 GiB
Duration                         : 1h 28mn
Overall bit rate                 : 1 745 Kbps

Video
ID                               : 1
Format                           : AVC
Format/Info                      : Advanced Video Codec
Format profile                   : High@L3.0
Format settings, CABAC           : Yes
Format settings, ReFrames        : 3 frames
Muxing mode                      : Container profile=Unknown@3.0
Codec ID                         : V_MPEG4/ISO/AVC
Duration                         : 1h 28mn
Bit rate                         : 1 313 Kbps
Width                            : 720 pixels
Height                           : 320 pixels
Display aspect ratio             : 2.25:1
Frame rate                       : 25.000 fps
Color space                      : YUV
Chroma subsampling               : 4:2:0
Bit depth                        : 8 bits
Scan type                        : Progressive
Bits/(Pixel*Frame)               : 0.228
Stream size                      : 801 MiB (72%)
Writing library                  : x264 core 79

Audio
ID                               : 2
Format                           : AC-3
Format/Info                      : Audio Coding 3
Mode extension                   : CM (complete main)
Codec ID                         : A_AC3
Duration                         : 1h 28mn
Bit rate mode                    : Constant
Bit rate                         : 448 Kbps
Channel(s)                       : 6 channels
Channel positions                : Front: L C R, Side: L R, LFE
Sampling rate                    : 48.0 KHz
Stream size                      : 284 MiB (26%)
Language                         : English

Text
ID                               : 3
Format                           : VobSub
Codec ID                         : S_VOBSUB
Codec ID/Info                    : The same subtitle format used on DVDs
Language                         : English